<mxfile host="Electron" modified="2024-01-03T21:59:29.710Z" agent="Mozilla/5.0 (Macintosh; Intel Mac OS X 10_15_7) AppleWebKit/537.36 (KHTML, like Gecko) draw.io/22.1.16 Chrome/120.0.6099.109 Electron/28.1.0 Safari/537.36" etag="6VkD7waBmDkIDBoQRm2A" version="22.1.16" type="device">
  <diagram name="Page-1" id="emtAasKzlPdS6pt3cwZh">
    <mxGraphModel dx="1425" dy="878" grid="1" gridSize="10" guides="1" tooltips="1" connect="1" arrows="1" fold="1" page="1" pageScale="1" pageWidth="1100" pageHeight="850" math="0" shadow="0">
      <root>
        <mxCell id="0" />
        <mxCell id="1" parent="0" />
        <mxCell id="uSOC3zjAR3j8wY93uEH8-2" value="" style="edgeStyle=orthogonalEdgeStyle;rounded=0;orthogonalLoop=1;jettySize=auto;html=1;" parent="1" source="ADusXki2atj7HuFuhrGn-1" target="uSOC3zjAR3j8wY93uEH8-1" edge="1">
          <mxGeometry relative="1" as="geometry" />
        </mxCell>
        <mxCell id="ADusXki2atj7HuFuhrGn-1" value="Review of initial candidate items" style="rounded=0;whiteSpace=wrap;html=1;fontSize=13;strokeColor=#C7C7C7;" parent="1" vertex="1">
          <mxGeometry x="108" y="41" width="350" height="30" as="geometry" />
        </mxCell>
        <mxCell id="d5q1_JHn23FKH17lIOsH-2" value="" style="edgeStyle=orthogonalEdgeStyle;rounded=0;orthogonalLoop=1;jettySize=auto;html=1;exitX=0.5;exitY=1;exitDx=0;exitDy=0;entryX=0.5;entryY=0;entryDx=0;entryDy=0;" parent="1" source="uSOC3zjAR3j8wY93uEH8-1" target="d5q1_JHn23FKH17lIOsH-1" edge="1">
          <mxGeometry relative="1" as="geometry" />
        </mxCell>
        <mxCell id="uSOC3zjAR3j8wY93uEH8-1" value="&lt;font style=&quot;font-size: 13px;&quot;&gt;Anonymized e-Delphi survey of candidate items&lt;/font&gt;" style="rounded=1;whiteSpace=wrap;html=1;fillColor=#f5f5f5;" parent="1" vertex="1">
          <mxGeometry x="108" y="101" width="350" height="40" as="geometry" />
        </mxCell>
        <mxCell id="fNnHBSCvgJYo-EjJQimd-2" value="" style="edgeStyle=orthogonalEdgeStyle;rounded=0;orthogonalLoop=1;jettySize=auto;html=1;" parent="1" source="d5q1_JHn23FKH17lIOsH-1" target="fNnHBSCvgJYo-EjJQimd-1" edge="1">
          <mxGeometry relative="1" as="geometry" />
        </mxCell>
        <mxCell id="d5q1_JHn23FKH17lIOsH-1" value="Consensus&lt;sup&gt;1&lt;/sup&gt;" style="rounded=0;whiteSpace=wrap;html=1;fontSize=13;" parent="1" vertex="1">
          <mxGeometry x="168" y="202" width="120" height="50" as="geometry" />
        </mxCell>
        <mxCell id="w7dC0BdMcKL4V1T4e6uP-3" value="" style="edgeStyle=orthogonalEdgeStyle;rounded=0;orthogonalLoop=1;jettySize=auto;html=1;" parent="1" source="aI1CW3HAmzctkrjhC1wy-1" target="QY7v1GT_jgKdb7sdzu_A-3" edge="1">
          <mxGeometry relative="1" as="geometry" />
        </mxCell>
        <mxCell id="w7dC0BdMcKL4V1T4e6uP-4" value="" style="edgeStyle=orthogonalEdgeStyle;rounded=0;orthogonalLoop=1;jettySize=auto;html=1;startArrow=classic;startFill=1;endArrow=none;endFill=0;entryX=0.5;entryY=1;entryDx=0;entryDy=0;exitX=0.5;exitY=0;exitDx=0;exitDy=0;" parent="1" source="aI1CW3HAmzctkrjhC1wy-1" target="uSOC3zjAR3j8wY93uEH8-1" edge="1">
          <mxGeometry relative="1" as="geometry" />
        </mxCell>
        <mxCell id="aI1CW3HAmzctkrjhC1wy-1" value="No consensus" style="rounded=0;whiteSpace=wrap;html=1;fontSize=13;" parent="1" vertex="1">
          <mxGeometry x="403" y="202" width="100" height="50" as="geometry" />
        </mxCell>
        <mxCell id="WAs5p0rs6yCEId0tz21H-3" value="" style="edgeStyle=orthogonalEdgeStyle;rounded=0;orthogonalLoop=1;jettySize=auto;html=1;dashed=1;dashPattern=8 8;exitX=0.5;exitY=1;exitDx=0;exitDy=0;" parent="1" source="yjMTc29iKmr8lifg0grA-2" edge="1">
          <mxGeometry relative="1" as="geometry">
            <mxPoint x="228" y="471" as="targetPoint" />
          </mxGeometry>
        </mxCell>
        <mxCell id="fNnHBSCvgJYo-EjJQimd-1" value="Further discussion" style="rounded=0;whiteSpace=wrap;html=1;fontSize=13;" parent="1" vertex="1">
          <mxGeometry x="183" y="332" width="90" height="50" as="geometry" />
        </mxCell>
        <mxCell id="w7dC0BdMcKL4V1T4e6uP-1" value="" style="edgeStyle=orthogonalEdgeStyle;rounded=0;orthogonalLoop=1;jettySize=auto;html=1;startArrow=classic;startFill=1;endArrow=none;endFill=0;entryX=0.5;entryY=1;entryDx=0;entryDy=0;exitX=0.5;exitY=0;exitDx=0;exitDy=0;" parent="1" source="QY7v1GT_jgKdb7sdzu_A-1" target="d5q1_JHn23FKH17lIOsH-1" edge="1">
          <mxGeometry relative="1" as="geometry" />
        </mxCell>
        <mxCell id="QY7v1GT_jgKdb7sdzu_A-1" value="Excluded&lt;br&gt;&amp;nbsp;item" style="rounded=0;whiteSpace=wrap;html=1;fontSize=13;" parent="1" vertex="1">
          <mxGeometry x="68" y="332" width="90" height="50" as="geometry" />
        </mxCell>
        <mxCell id="w7dC0BdMcKL4V1T4e6uP-2" value="" style="edgeStyle=orthogonalEdgeStyle;rounded=0;orthogonalLoop=1;jettySize=auto;html=1;startArrow=classic;startFill=1;endArrow=none;endFill=0;" parent="1" source="QY7v1GT_jgKdb7sdzu_A-2" edge="1">
          <mxGeometry relative="1" as="geometry">
            <mxPoint x="228" y="252" as="targetPoint" />
            <Array as="points">
              <mxPoint x="343" y="292" />
              <mxPoint x="228" y="292" />
            </Array>
          </mxGeometry>
        </mxCell>
        <mxCell id="QY7v1GT_jgKdb7sdzu_A-2" value="Core item" style="rounded=0;whiteSpace=wrap;html=1;fontSize=13;fillColor=#d5e8d4;strokeColor=#82b366;" parent="1" vertex="1">
          <mxGeometry x="298" y="332" width="90" height="50" as="geometry" />
        </mxCell>
        <mxCell id="QY7v1GT_jgKdb7sdzu_A-3" value="Further discussion" style="rounded=0;whiteSpace=wrap;html=1;fontSize=13;" parent="1" vertex="1">
          <mxGeometry x="408" y="332" width="90" height="50" as="geometry" />
        </mxCell>
        <mxCell id="PVAVQVcMNhThmKxj_n0E-1" value="&lt;font style=&quot;font-size: 12px;&quot;&gt;Irrelevant&lt;/font&gt;" style="text;html=1;strokeColor=none;fillColor=none;align=center;verticalAlign=middle;whiteSpace=wrap;rounded=0;fontSize=12;" parent="1" vertex="1">
          <mxGeometry x="68" y="382" width="90" height="30" as="geometry" />
        </mxCell>
        <mxCell id="yjMTc29iKmr8lifg0grA-2" value="&lt;font style=&quot;font-size: 12px;&quot;&gt;Equivocal&lt;/font&gt;" style="text;html=1;strokeColor=none;fillColor=none;align=center;verticalAlign=middle;whiteSpace=wrap;rounded=0;fontSize=12;" parent="1" vertex="1">
          <mxGeometry x="183" y="382" width="90" height="30" as="geometry" />
        </mxCell>
        <mxCell id="yjMTc29iKmr8lifg0grA-3" value="&lt;font style=&quot;font-size: 12px;&quot;&gt;Relevant&lt;/font&gt;" style="text;html=1;strokeColor=none;fillColor=none;align=center;verticalAlign=middle;whiteSpace=wrap;rounded=0;fontSize=12;" parent="1" vertex="1">
          <mxGeometry x="298" y="382" width="90" height="30" as="geometry" />
        </mxCell>
        <mxCell id="yjMTc29iKmr8lifg0grA-4" value="&lt;font style=&quot;font-size: 14px;&quot;&gt;&lt;b&gt;1 - Consensus:&lt;/b&gt; if&amp;nbsp;&lt;span style=&quot;line-height: 15.6933px; font-family: Calibri, sans-serif;&quot;&gt;â‰¥ 70% of participant votes fall within the same category (irrelevant, equivocal, relevant); no consensus if &amp;lt;70% agreement.&lt;br&gt;&lt;font style=&quot;&quot;&gt;&lt;b style=&quot;&quot;&gt;2 - Item relevancy:&lt;/b&gt; &lt;i style=&quot;&quot;&gt;core item&lt;/i&gt;: highly or moderately relevant; &lt;i style=&quot;&quot;&gt;further discussion&lt;/i&gt;: slightly relevant, neutral, slightly irrelevant; &lt;i style=&quot;&quot;&gt;excluded item&lt;/i&gt;: moderately or highly irrelevant.&lt;br&gt;&lt;/font&gt;&lt;/span&gt;&lt;/font&gt;&lt;span style=&quot;font-size: 12px;&quot;&gt;&lt;/span&gt;" style="text;html=1;strokeColor=none;fillColor=none;align=left;verticalAlign=middle;whiteSpace=wrap;rounded=0;fontSize=12;" parent="1" vertex="1">
          <mxGeometry x="68" y="790" width="930" height="40" as="geometry" />
        </mxCell>
        <mxCell id="xM073StepA89XgEnhjdI-1" value="" style="edgeStyle=orthogonalEdgeStyle;rounded=0;orthogonalLoop=1;jettySize=auto;html=1;fontSize=13;" parent="1" source="xM073StepA89XgEnhjdI-2" target="xM073StepA89XgEnhjdI-4" edge="1">
          <mxGeometry relative="1" as="geometry" />
        </mxCell>
        <mxCell id="xM073StepA89XgEnhjdI-2" value="Review of new and non-consensus items" style="rounded=0;whiteSpace=wrap;html=1;fontSize=13;strokeColor=#C7C7C7;" parent="1" vertex="1">
          <mxGeometry x="637" y="41" width="350" height="30" as="geometry" />
        </mxCell>
        <mxCell id="xM073StepA89XgEnhjdI-3" value="" style="edgeStyle=orthogonalEdgeStyle;rounded=0;orthogonalLoop=1;jettySize=auto;html=1;entryX=0.5;entryY=0;entryDx=0;entryDy=0;" parent="1" source="xM073StepA89XgEnhjdI-4" target="xM073StepA89XgEnhjdI-6" edge="1">
          <mxGeometry relative="1" as="geometry" />
        </mxCell>
        <mxCell id="xM073StepA89XgEnhjdI-4" value="Anonymized e-Delphi survey of candidate items" style="rounded=1;whiteSpace=wrap;html=1;fontSize=13;fillColor=#f5f5f5;" parent="1" vertex="1">
          <mxGeometry x="637" y="101" width="350" height="40" as="geometry" />
        </mxCell>
        <mxCell id="xM073StepA89XgEnhjdI-5" value="" style="edgeStyle=orthogonalEdgeStyle;rounded=0;orthogonalLoop=1;jettySize=auto;html=1;fontSize=13;exitX=0.5;exitY=1;exitDx=0;exitDy=0;" parent="1" source="xM073StepA89XgEnhjdI-6" target="xM073StepA89XgEnhjdI-10" edge="1">
          <mxGeometry relative="1" as="geometry" />
        </mxCell>
        <mxCell id="xM073StepA89XgEnhjdI-6" value="Consensus" style="rounded=0;whiteSpace=wrap;html=1;fontSize=13;" parent="1" vertex="1">
          <mxGeometry x="708" y="202" width="120" height="50" as="geometry" />
        </mxCell>
        <mxCell id="xM073StepA89XgEnhjdI-7" value="" style="edgeStyle=orthogonalEdgeStyle;rounded=0;orthogonalLoop=1;jettySize=auto;html=1;fontSize=13;" parent="1" source="xM073StepA89XgEnhjdI-9" target="xM073StepA89XgEnhjdI-15" edge="1">
          <mxGeometry relative="1" as="geometry" />
        </mxCell>
        <mxCell id="xM073StepA89XgEnhjdI-8" value="" style="edgeStyle=orthogonalEdgeStyle;rounded=0;orthogonalLoop=1;jettySize=auto;html=1;startArrow=classic;startFill=1;endArrow=none;endFill=0;" parent="1" source="xM073StepA89XgEnhjdI-9" target="xM073StepA89XgEnhjdI-4" edge="1">
          <mxGeometry relative="1" as="geometry" />
        </mxCell>
        <mxCell id="xM073StepA89XgEnhjdI-9" value="No consensus" style="rounded=0;whiteSpace=wrap;html=1;fontSize=13;" parent="1" vertex="1">
          <mxGeometry x="943" y="202" width="100" height="50" as="geometry" />
        </mxCell>
        <mxCell id="WAs5p0rs6yCEId0tz21H-2" value="" style="edgeStyle=orthogonalEdgeStyle;rounded=0;orthogonalLoop=1;jettySize=auto;html=1;dashed=1;dashPattern=8 8;exitX=0.5;exitY=1;exitDx=0;exitDy=0;" parent="1" source="xM073StepA89XgEnhjdI-17" edge="1">
          <mxGeometry relative="1" as="geometry">
            <mxPoint x="768" y="471" as="targetPoint" />
          </mxGeometry>
        </mxCell>
        <mxCell id="xM073StepA89XgEnhjdI-10" value="Further discussion" style="rounded=0;whiteSpace=wrap;html=1;fontSize=13;" parent="1" vertex="1">
          <mxGeometry x="723" y="332" width="90" height="50" as="geometry" />
        </mxCell>
        <mxCell id="xM073StepA89XgEnhjdI-11" value="" style="edgeStyle=orthogonalEdgeStyle;rounded=0;orthogonalLoop=1;jettySize=auto;html=1;startArrow=classic;startFill=1;endArrow=none;endFill=0;fontSize=13;" parent="1" source="xM073StepA89XgEnhjdI-12" target="xM073StepA89XgEnhjdI-6" edge="1">
          <mxGeometry relative="1" as="geometry">
            <Array as="points">
              <mxPoint x="653" y="301" />
              <mxPoint x="768" y="301" />
            </Array>
          </mxGeometry>
        </mxCell>
        <mxCell id="xM073StepA89XgEnhjdI-12" value="Excluded&lt;br style=&quot;font-size: 13px;&quot;&gt;&amp;nbsp;item" style="rounded=0;whiteSpace=wrap;html=1;fontSize=13;" parent="1" vertex="1">
          <mxGeometry x="608" y="332" width="90" height="50" as="geometry" />
        </mxCell>
        <mxCell id="xM073StepA89XgEnhjdI-13" value="" style="edgeStyle=orthogonalEdgeStyle;rounded=0;orthogonalLoop=1;jettySize=auto;html=1;startArrow=classic;startFill=1;endArrow=none;endFill=0;fontSize=13;entryX=0.5;entryY=1;entryDx=0;entryDy=0;" parent="1" source="xM073StepA89XgEnhjdI-14" target="xM073StepA89XgEnhjdI-6" edge="1">
          <mxGeometry relative="1" as="geometry">
            <Array as="points">
              <mxPoint x="883" y="301" />
              <mxPoint x="768" y="301" />
            </Array>
          </mxGeometry>
        </mxCell>
        <mxCell id="xM073StepA89XgEnhjdI-14" value="Core item" style="rounded=0;whiteSpace=wrap;html=1;fontSize=13;fillColor=#d5e8d4;strokeColor=#82b366;" parent="1" vertex="1">
          <mxGeometry x="838" y="332" width="90" height="50" as="geometry" />
        </mxCell>
        <mxCell id="fLgBA1STNOhTyOhKpstE-3" value="" style="edgeStyle=orthogonalEdgeStyle;rounded=0;orthogonalLoop=1;jettySize=auto;html=1;dashed=1;dashPattern=8 8;exitX=0.5;exitY=1;exitDx=0;exitDy=0;" parent="1" source="xM073StepA89XgEnhjdI-15" edge="1">
          <mxGeometry relative="1" as="geometry">
            <mxPoint x="900" y="471" as="targetPoint" />
          </mxGeometry>
        </mxCell>
        <mxCell id="xM073StepA89XgEnhjdI-15" value="&lt;font style=&quot;font-size: 13px;&quot;&gt;Further discussion&lt;/font&gt;" style="rounded=0;whiteSpace=wrap;html=1;" parent="1" vertex="1">
          <mxGeometry x="948" y="332" width="90" height="50" as="geometry" />
        </mxCell>
        <mxCell id="xM073StepA89XgEnhjdI-16" value="&lt;font style=&quot;font-size: 12px;&quot;&gt;Irrelevant&lt;/font&gt;" style="text;html=1;strokeColor=none;fillColor=none;align=center;verticalAlign=middle;whiteSpace=wrap;rounded=0;fontSize=12;" parent="1" vertex="1">
          <mxGeometry x="608" y="382" width="90" height="30" as="geometry" />
        </mxCell>
        <mxCell id="xM073StepA89XgEnhjdI-17" value="&lt;font style=&quot;font-size: 12px;&quot;&gt;Equivocal&lt;/font&gt;" style="text;html=1;strokeColor=none;fillColor=none;align=center;verticalAlign=middle;whiteSpace=wrap;rounded=0;fontSize=12;" parent="1" vertex="1">
          <mxGeometry x="723" y="382" width="90" height="30" as="geometry" />
        </mxCell>
        <mxCell id="xM073StepA89XgEnhjdI-18" value="&lt;font style=&quot;font-size: 12px;&quot;&gt;Relevant&lt;/font&gt;" style="text;html=1;strokeColor=none;fillColor=none;align=center;verticalAlign=middle;whiteSpace=wrap;rounded=0;fontSize=12;" parent="1" vertex="1">
          <mxGeometry x="838" y="382" width="90" height="30" as="geometry" />
        </mxCell>
        <mxCell id="u7LdQ079zCrhy2FaXL5g-2" value="" style="edgeStyle=orthogonalEdgeStyle;rounded=0;orthogonalLoop=1;jettySize=auto;html=1;" parent="1" source="xM073StepA89XgEnhjdI-21" target="u7LdQ079zCrhy2FaXL5g-1" edge="1">
          <mxGeometry relative="1" as="geometry">
            <Array as="points">
              <mxPoint x="553" y="551" />
              <mxPoint x="318" y="551" />
            </Array>
          </mxGeometry>
        </mxCell>
        <mxCell id="xM073StepA89XgEnhjdI-21" value="&lt;font style=&quot;font-size: 13px;&quot;&gt;In-person or hybrid with discussion and Delphi survey&lt;/font&gt;" style="rounded=1;whiteSpace=wrap;html=1;fillColor=#f5f5f5;fontColor=#333333;strokeColor=#666666;" parent="1" vertex="1">
          <mxGeometry x="150" y="474" width="780" height="40" as="geometry" />
        </mxCell>
        <mxCell id="8ri-V6d4gGo3EQjOgz8w-2" value="" style="edgeStyle=orthogonalEdgeStyle;rounded=0;orthogonalLoop=1;jettySize=auto;html=1;fontSize=13;exitX=0.5;exitY=1;exitDx=0;exitDy=0;" parent="1" source="u7LdQ079zCrhy2FaXL5g-1" target="8ri-V6d4gGo3EQjOgz8w-1" edge="1">
          <mxGeometry relative="1" as="geometry">
            <mxPoint x="228" y="624" as="sourcePoint" />
            <Array as="points">
              <mxPoint x="319" y="664" />
              <mxPoint x="436" y="664" />
            </Array>
          </mxGeometry>
        </mxCell>
        <mxCell id="u7LdQ079zCrhy2FaXL5g-1" value="Consensus" style="rounded=0;whiteSpace=wrap;html=1;fontSize=13;" parent="1" vertex="1">
          <mxGeometry x="259" y="584" width="120" height="50" as="geometry" />
        </mxCell>
        <mxCell id="8ri-V6d4gGo3EQjOgz8w-1" value="Optional item" style="rounded=0;whiteSpace=wrap;html=1;fontSize=13;fillColor=#fff2cc;strokeColor=#d6b656;" parent="1" vertex="1">
          <mxGeometry x="340.5" y="704" width="190" height="50" as="geometry" />
        </mxCell>
        <mxCell id="OlQjCFji-MPNZPO0IGL6-7" value="" style="edgeStyle=orthogonalEdgeStyle;rounded=0;orthogonalLoop=1;jettySize=auto;html=1;startArrow=classic;startFill=1;endArrow=none;endFill=0;fontSize=13;exitX=0.536;exitY=0.01;exitDx=0;exitDy=0;exitPerimeter=0;" parent="1" source="CD5t_j6nFhzLoaNFEXs_-1" target="u7LdQ079zCrhy2FaXL5g-1" edge="1">
          <mxGeometry relative="1" as="geometry">
            <Array as="points">
              <mxPoint x="170" y="664" />
              <mxPoint x="319" y="664" />
            </Array>
          </mxGeometry>
        </mxCell>
        <mxCell id="CD5t_j6nFhzLoaNFEXs_-1" value="Excluded item" style="rounded=0;whiteSpace=wrap;html=1;fontSize=13;" parent="1" vertex="1">
          <mxGeometry x="68" y="704" width="190" height="50" as="geometry" />
        </mxCell>
        <mxCell id="OlQjCFji-MPNZPO0IGL6-6" value="" style="edgeStyle=orthogonalEdgeStyle;rounded=0;orthogonalLoop=1;jettySize=auto;html=1;startArrow=classic;startFill=1;endArrow=none;endFill=0;fontSize=13;entryX=0.5;entryY=1;entryDx=0;entryDy=0;" parent="1" source="OlQjCFji-MPNZPO0IGL6-1" target="u7LdQ079zCrhy2FaXL5g-1" edge="1">
          <mxGeometry relative="1" as="geometry">
            <Array as="points">
              <mxPoint x="718" y="664" />
              <mxPoint x="319" y="664" />
            </Array>
          </mxGeometry>
        </mxCell>
        <mxCell id="OlQjCFji-MPNZPO0IGL6-1" value="Core item" style="rounded=0;whiteSpace=wrap;html=1;fontSize=13;fillColor=#d5e8d4;strokeColor=#82b366;" parent="1" vertex="1">
          <mxGeometry x="623" y="704" width="190" height="50" as="geometry" />
        </mxCell>
        <mxCell id="OlQjCFji-MPNZPO0IGL6-4" value="" style="edgeStyle=orthogonalEdgeStyle;rounded=0;orthogonalLoop=1;jettySize=auto;html=1;fontSize=13;" parent="1" source="OlQjCFji-MPNZPO0IGL6-2" target="OlQjCFji-MPNZPO0IGL6-3" edge="1">
          <mxGeometry relative="1" as="geometry" />
        </mxCell>
        <mxCell id="OlQjCFji-MPNZPO0IGL6-5" value="" style="edgeStyle=orthogonalEdgeStyle;rounded=0;orthogonalLoop=1;jettySize=auto;html=1;startArrow=classic;startFill=1;endArrow=none;endFill=0;" parent="1" source="OlQjCFji-MPNZPO0IGL6-2" target="xM073StepA89XgEnhjdI-21" edge="1">
          <mxGeometry relative="1" as="geometry">
            <Array as="points">
              <mxPoint x="943" y="551" />
              <mxPoint x="553" y="551" />
            </Array>
          </mxGeometry>
        </mxCell>
        <mxCell id="OlQjCFji-MPNZPO0IGL6-2" value="No consensus" style="rounded=0;whiteSpace=wrap;html=1;fontSize=13;" parent="1" vertex="1">
          <mxGeometry x="883" y="584" width="120" height="50" as="geometry" />
        </mxCell>
        <mxCell id="OlQjCFji-MPNZPO0IGL6-3" value="Excluded item" style="rounded=0;whiteSpace=wrap;html=1;fontSize=13;" parent="1" vertex="1">
          <mxGeometry x="848" y="704" width="190" height="50" as="geometry" />
        </mxCell>
        <mxCell id="WAs5p0rs6yCEId0tz21H-4" value="" style="endArrow=classic;html=1;rounded=0;exitX=0.5;exitY=1;exitDx=0;exitDy=0;entryX=0;entryY=0.5;entryDx=0;entryDy=0;dashed=1;dashPattern=8 8;" parent="1" source="QY7v1GT_jgKdb7sdzu_A-3" target="xM073StepA89XgEnhjdI-2" edge="1">
          <mxGeometry width="50" height="50" relative="1" as="geometry">
            <mxPoint x="538" y="351" as="sourcePoint" />
            <mxPoint x="598" y="61" as="targetPoint" />
            <Array as="points">
              <mxPoint x="453" y="421" />
              <mxPoint x="558" y="421" />
              <mxPoint x="558" y="56" />
            </Array>
          </mxGeometry>
        </mxCell>
        <mxCell id="7RsZnUVXF2ZZbRm5uMcL-1" value="Round 1 e-Delphi" style="text;html=1;strokeColor=none;fillColor=none;align=center;verticalAlign=middle;whiteSpace=wrap;rounded=0;fontSize=14;fontStyle=1" parent="1" vertex="1">
          <mxGeometry x="223" y="11" width="120" height="30" as="geometry" />
        </mxCell>
        <mxCell id="7RsZnUVXF2ZZbRm5uMcL-2" value="Round 2 e-Delphi" style="text;html=1;strokeColor=none;fillColor=none;align=center;verticalAlign=middle;whiteSpace=wrap;rounded=0;fontSize=14;fontStyle=1" parent="1" vertex="1">
          <mxGeometry x="752" y="11" width="120" height="30" as="geometry" />
        </mxCell>
        <mxCell id="7RsZnUVXF2ZZbRm5uMcL-3" value="Consensus meeting" style="text;html=1;strokeColor=none;fillColor=none;align=center;verticalAlign=middle;whiteSpace=wrap;rounded=0;fontSize=14;fontStyle=1" parent="1" vertex="1">
          <mxGeometry x="475.5" y="444" width="155" height="30" as="geometry" />
        </mxCell>
        <mxCell id="C02po4mjeKva8tLnRLbJ-1" value="&lt;font style=&quot;font-size: 12px;&quot;&gt;Irrelevant&lt;/font&gt;" style="text;html=1;strokeColor=none;fillColor=none;align=center;verticalAlign=middle;whiteSpace=wrap;rounded=0;fontSize=12;" parent="1" vertex="1">
          <mxGeometry x="67" y="754" width="192" height="30" as="geometry" />
        </mxCell>
        <mxCell id="C02po4mjeKva8tLnRLbJ-2" value="&lt;font style=&quot;font-size: 12px;&quot;&gt;Equivocal relevance&lt;/font&gt;" style="text;html=1;strokeColor=none;fillColor=none;align=center;verticalAlign=middle;whiteSpace=wrap;rounded=0;fontSize=12;" parent="1" vertex="1">
          <mxGeometry x="340.5" y="754" width="190" height="30" as="geometry" />
        </mxCell>
        <mxCell id="C02po4mjeKva8tLnRLbJ-3" value="&lt;font style=&quot;font-size: 12px;&quot;&gt;Relevant&lt;/font&gt;" style="text;html=1;strokeColor=none;fillColor=none;align=center;verticalAlign=middle;whiteSpace=wrap;rounded=0;fontSize=12;" parent="1" vertex="1">
          <mxGeometry x="618" y="754" width="190" height="30" as="geometry" />
        </mxCell>
      </root>
    </mxGraphModel>
  </diagram>
</mxfile>
